<svg width="182" height="182" viewBox="0 0 182 182" fill="none" xmlns="http://www.w3.org/2000/svg">
<path d="M174.602 163.449V174.602H7.39844V169.137H13.9297L14.209 168.597L16.876 163.449H174.602ZM25.417 122.502L16.9902 144.962L8.81934 160.738H7.59863C7.91101 153.926 8.13926 145.361 9.66602 137.421C10.5911 132.608 11.9963 128.319 13.8926 125.32C15.5679 122.67 17.4447 121.131 19.959 120.453L25.417 122.502ZM163.458 109.095C151.426 118.501 134.435 125.313 114.517 129.85C92.93 134.766 67.9971 136.99 42.418 136.99H41.418V145.388H42.418C67.6281 145.388 92.4426 143.466 114.403 138.741C134.436 134.432 152.155 127.778 165.633 118.073C162.982 122.695 159.661 127.711 155.936 132.5C151.126 138.684 145.597 144.351 140.15 148.462C134.669 152.599 129.413 155.051 125.125 155.051H42.0596L29.3359 135.964L32.0957 128.61C50.3013 127.213 75.015 123.836 99.4648 120.032C123.845 116.24 147.256 112.122 163.458 109.095ZM31.9668 155.051H21.2246L24.6514 148.434L24.6787 148.38L24.7002 148.324L25.7012 145.654L31.9668 155.051ZM7.39844 110.097C10.1157 110.822 13.0376 111.746 16.1572 112.828C12.4887 114.246 9.5599 116.831 7.39844 119.923V110.097ZM59.6904 62.3206C74.304 65.4132 84.8532 69.5818 94.2871 76.2463C104.229 83.2696 112.994 93.1092 123.97 107.548C123.704 107.592 123.438 107.637 123.173 107.681L98.0879 92.6311L97.8506 92.4885H65.5391L66.7393 94.0881L70.5781 99.2073L81.8174 114.194C64.8522 116.661 48.5007 118.744 35.3594 119.912L35.8799 118.526L36.2314 117.59L35.2949 117.239L29.4844 115.058C31.7252 109.24 31.8342 104.65 29.0771 100.819C26.6097 97.3894 21.9634 94.767 15.1846 92.2834C30.6301 88.1996 43.9027 91.3206 57.417 100.343L58.9463 101.365L58.9727 99.5256C59.0492 94.1768 56.5364 89.2639 52.5098 85.053C49.0893 81.4761 44.5364 78.3643 39.4102 75.8499C46.1898 74.5756 51.9355 74.4927 57.6191 75.6965C64.1213 77.0737 70.6215 80.151 78.5586 85.1965L80.4121 86.3752L80.084 84.2034C79.3368 79.2572 76.4572 75.8558 72.373 72.3792C70.3377 70.6465 67.9534 68.8552 65.3486 66.843C63.5723 65.4708 61.6804 63.9838 59.6904 62.3206ZM95.5244 100.887L113.185 111.483L92.8271 114.875L82.3359 100.887H95.5244Z" fill="black" stroke="#C87851" stroke-width="2"/>
</svg>
