<svg width="29" height="29" viewBox="0 0 29 29" fill="none" xmlns="http://www.w3.org/2000/svg">
<path d="M13.654 3.08159C13.5231 3.08205 13.3928 3.08341 13.2627 3.08692C13.1605 3.08975 13.0583 3.09292 12.9565 3.09757C12.4573 3.18632 12.2268 3.4049 12.1016 3.65508C11.9637 3.93092 11.9691 4.30209 12.1229 4.63213C12.2767 4.96235 12.559 5.2323 12.953 5.33312C13.3471 5.43394 13.8896 5.38183 14.6027 4.92604L15.1727 5.81813C14.2767 6.39077 13.4098 6.54183 12.6911 6.35792C11.9724 6.174 11.4391 5.67126 11.1636 5.07993C10.9039 4.52282 10.8563 3.86918 11.1052 3.28873C8.6744 3.68182 6.47335 4.61401 4.78268 5.92603C4.22704 6.53141 4.17266 7.235 4.41621 7.71554C4.68979 8.25509 5.33436 8.64897 6.6235 8.24116L6.94386 9.2501C5.32507 9.76213 3.99079 9.2168 3.47292 8.19517C3.34661 7.94612 3.26947 7.67657 3.23917 7.39863C2.9665 7.72216 2.72034 8.05895 2.50284 8.40933L2.50997 8.41272C2.02207 9.52379 2.01097 10.2934 2.20547 10.7934C2.40009 11.2936 2.80785 11.6113 3.43571 11.7865C4.69132 12.1365 6.72455 11.7141 8.15631 10.6448C8.76916 10.1872 9.35012 9.07718 9.4007 8.21635C9.42591 7.78588 9.33472 7.44581 9.1546 7.22865C8.97448 7.01149 8.68607 6.84899 8.08902 6.85516L8.07843 5.79678C8.89898 5.78828 9.56525 6.06605 9.96881 6.55259C10.3723 7.03913 10.4933 7.66569 10.4573 8.27832C10.3854 9.50362 9.74395 10.7802 8.78995 11.4927C7.09775 12.7566 4.86271 13.2829 3.1525 12.8061C2.36022 12.5852 1.65889 12.1045 1.29752 11.36C0.756832 13.9341 1.54238 16.3251 3.03741 17.9798C3.23282 18.1962 3.44081 18.4007 3.65876 18.5904C3.50277 18.1437 3.43129 17.6785 3.44806 17.2258C3.47808 16.4144 3.79254 15.6202 4.42341 15.0717C4.94076 14.6217 5.65546 14.362 6.51022 14.3637C6.5672 14.3637 6.62543 14.3647 6.68365 14.3671C6.81676 14.3728 6.95343 14.3843 7.0926 14.4026L6.95439 15.4523C6.07148 15.3363 5.49845 15.5385 5.1172 15.87C4.73601 16.2015 4.5257 16.6977 4.50474 17.2648C4.46283 18.3989 5.1884 19.7233 6.75281 20.1074L6.751 20.1181C8.29117 20.412 10.0099 20.1391 11.7354 19.0861C11.7364 19.0854 11.7378 19.0851 11.7389 19.0844C12.098 18.8323 12.2914 18.5855 12.3867 18.3728C12.4992 18.1218 12.4968 17.9031 12.4168 17.6683C12.2568 17.1988 11.6838 16.7161 11.1583 16.5816C10.3086 16.3641 9.76881 16.6629 9.51574 17.0188C9.26267 17.3745 9.24726 17.724 9.63786 18.0276L8.98819 18.863C8.18463 18.2381 8.13337 17.1362 8.65373 16.4045C9.0441 15.8558 9.72905 15.4798 10.5548 15.4558C10.5892 15.4548 10.6244 15.4538 10.6593 15.4541C10.9032 15.4558 11.1571 15.4893 11.4203 15.5566C12.2986 15.7815 13.1105 16.4219 13.4186 17.3267C13.4988 17.562 13.537 17.8189 13.5249 18.0808C14.4713 17.5972 15.4695 17.1677 16.4862 16.8452C18.1942 16.0647 18.9347 14.6964 18.9059 13.5442C18.8767 12.3835 18.1589 11.4066 16.5056 11.2431L16.6101 10.1899C18.6869 10.3953 19.9214 11.8805 19.9625 13.5176C19.9864 14.4714 19.6366 15.4639 18.9324 16.3088C19.8427 16.2069 20.7474 16.2241 21.6245 16.401C21.446 16.0344 21.3594 15.6376 21.3715 15.2434C21.4098 13.9952 22.4714 12.8309 24.1398 12.8131C24.251 12.8119 24.3649 12.8161 24.4813 12.8255L24.3964 13.8804C22.9845 13.7672 22.4536 14.5083 22.4299 15.2769C22.4066 16.0371 22.9139 16.8879 24.3682 17.0009C25.9711 17.015 27.1202 16.1457 27.6833 14.8538C28.4372 13.1243 28.0797 10.5312 25.7098 8.1596C25.6649 8.11468 25.6204 8.06937 25.5752 8.02508C25.5501 8.23986 25.4946 8.44665 25.4143 8.63929C25.0036 9.62427 24.0417 10.2891 23.0424 10.4748C21.6641 10.731 20.5338 10.172 20.0122 9.31903C19.4905 8.46619 19.6275 7.26014 20.5661 6.6252L21.1591 7.50313C20.6543 7.84456 20.6335 8.30686 20.9148 8.76679C21.1962 9.22682 21.8307 9.62523 22.8495 9.43594C23.4898 9.31688 24.2029 8.7942 24.4371 8.23232C24.5543 7.95139 24.577 7.67373 24.4602 7.35609C24.3653 7.0981 24.1664 6.80305 23.7964 6.49232L23.7858 6.48354C22.2386 5.31748 20.5948 4.47886 18.9288 3.92582C18.9299 3.92764 18.9314 3.92922 18.9324 3.93109C19.311 4.62324 19.3391 5.40839 19.1059 6.10292C18.6396 7.49203 17.1762 8.5865 15.3658 8.52601C14.9723 8.51298 14.5978 8.70272 14.2791 9.07298C13.9604 9.44324 13.7277 9.98564 13.6737 10.5634C13.5658 11.7188 14.0659 12.9925 16.0155 13.622L15.6895 14.6291C13.3625 13.8779 12.4706 12.0494 12.6184 10.4661C12.6924 9.67451 12.9982 8.93892 13.4769 8.38282C13.9556 7.82672 14.6366 7.44241 15.401 7.46773C16.7626 7.51316 17.7982 6.67001 18.102 5.76494C18.2539 5.3125 18.2343 4.86226 18.0029 4.43927C17.7781 4.02851 17.3328 3.62234 16.5356 3.32594C15.5662 3.15789 14.6007 3.07859 13.654 3.08159ZM19.387 17.3515C17.0129 17.5447 14.4385 18.6769 12.291 19.9888C9.12028 21.9258 5.78358 21.503 3.41611 19.7464C4.34751 23.0794 7.64785 23.7559 11.0909 22.9129C11.4355 22.7835 11.774 22.5426 12.0627 22.2315C12.4624 21.8006 12.752 21.242 12.8432 20.7801L13.8822 20.9854C13.7437 21.6868 13.368 22.3825 12.8397 22.952C12.3328 23.4983 11.6723 23.9347 10.9086 24.0493C10.5254 24.9029 10.21 25.7304 10.082 26.3096C9.8809 27.2193 10.8866 27.5685 11.3369 26.6512C12.4143 24.4568 13.935 22.5034 15.8345 20.8191C17.3108 19.8475 18.5763 18.6496 19.387 17.3515H19.387Z" fill="white" fill-opacity="0.98"/>
</svg>
