<svg width="191" height="191" viewBox="0 0 191 191" fill="none" xmlns="http://www.w3.org/2000/svg">
<path d="M83.1204 131.755L47.3079 129.102L47.75 59.6875H143.25V128.66L142.808 131.312H108.764L104.785 133.081L83.5625 156.956L83.1204 131.755Z" fill="#07070D"/>
<path d="M46.75 130.587L47.6943 130.64L77.5381 132.311L77.5654 132.312H82.5625V160.101L84.3125 158.117L105.649 133.934L109.433 132.312H144.25V58.6875H46.75V130.587ZM72.7158 102.875C76.4268 106.349 80.8871 108.932 85.7568 110.421C90.562 111.89 95.6319 112.252 100.588 111.488V111.649L101.791 111.401C107.851 110.148 113.436 107.234 117.927 102.996L124.877 110.046C116.94 117.545 106.445 121.767 95.501 121.836C89.8066 121.788 84.1837 120.645 78.9346 118.452L78.9277 118.449L77.96 118.04C73.4523 116.066 69.3207 113.324 65.7607 109.93L72.7158 102.875ZM124.225 78.5938V88.5312H114.287V78.5938H124.225ZM76.4746 78.5938V88.5312H66.5371V78.5938H76.4746ZM90.8896 33.541L90.3594 33.2588C88.6451 32.3466 87.2043 30.9939 86.1855 29.3408C85.1685 27.6904 84.6083 25.7993 84.5625 23.8613C84.5661 20.9655 85.7177 18.1886 87.7656 16.1406C89.8168 14.0894 92.5992 12.9375 95.5 12.9375C98.4008 12.9375 101.183 14.0894 103.234 16.1406C105.28 18.1863 106.43 20.9592 106.437 23.8516C106.343 25.7168 105.774 27.5275 104.782 29.1104C103.786 30.7001 102.398 32.007 100.751 32.9053L100.23 33.1895V48.75H148.565L153.949 54.1338V78.9521H160.742L166.125 84.335V95.0859L160.742 100.469H153.949V136.866L148.565 142.25H111.292L110.994 142.579L81.625 175.002L72.625 171.234V142.25H42.2686L36.8125 135.265V100.469H30.2578L24.875 95.0859V84.335L30.2578 78.9521H36.8125V52.5771L42.4463 48.75H90.8896V33.541Z" fill="black" stroke="#C87851" stroke-width="2"/>
</svg>
