<svg width="144" height="144" viewBox="0 0 144 144" fill="none" xmlns="http://www.w3.org/2000/svg">
<g clip-path="url(#clip0_88_1035)">
<rect x="53.2183" y="15.7954" width="82.3415" height="109.085" transform="rotate(2.53167 53.2183 15.7954)" fill="#07070D"/>
<rect x="116.071" y="31.2632" width="28.3021" height="96.9345" transform="rotate(2.53167 116.071 31.2632)" fill="#07070D"/>
<rect x="37.8948" y="31.6636" width="28.3021" height="86.1896" transform="rotate(-0.810614 37.8948 31.6636)" fill="#07070D"/>
<rect x="44.5264" y="20.2952" width="28.3021" height="16.1501" transform="rotate(-0.810614 44.5264 20.2952)" fill="#07070D"/>
<rect x="57.5967" y="112.737" width="58.8172" height="17.0823" transform="rotate(2.53167 57.5967 112.737)" fill="#07070D"/>
<rect x="61.3862" y="11.3684" width="58.8172" height="17.0823" transform="rotate(2.53167 61.3862 11.3684)" fill="#07070D"/>
<path d="M90.6562 13.0557C81.8838 13.0534 73.6594 14.1633 66.6396 16.0752C59.6272 17.9761 53.7793 20.7171 49.8252 23.8076C47.3478 25.7351 45.6049 27.7955 44.6396 29.8076L44.457 30.209C43.9283 31.4378 43.6715 32.6358 43.6689 33.876V38.0264L43.7637 38.2275C44.3332 39.4471 45.1376 40.6552 46.2031 41.8525H46.2041C48.4957 44.4243 51.9579 46.8596 56.291 48.9072C64.9522 53.0168 77.1833 55.6297 90.6562 55.623L90.6572 55.624V55.623C100.769 55.625 110.169 54.1629 117.891 51.6924C125.594 49.2417 131.686 45.712 135.111 41.8516L135.11 41.8506C136.176 40.6528 136.979 39.446 137.548 38.2246L138.211 36.8027H137.642V33.8779C137.642 32.6351 137.382 31.4364 136.857 30.21L136.855 30.2061L136.643 29.7461C136.117 28.6718 135.377 27.5881 134.417 26.5166C132.241 24.0678 128.877 21.687 124.627 19.6846H124.628C116.131 15.6483 104.012 13.0441 90.6562 13.0557ZM38.3115 33.877C38.3095 31.8756 38.7473 29.9105 39.54 28.0791L39.5391 28.0781C40.3351 26.2439 41.4787 24.5317 42.8955 22.9463C45.7449 19.77 49.6542 17.0869 54.3916 14.8398L54.3906 14.8389C63.5701 10.5074 75.7918 7.87575 89.3418 7.70703L90.6572 7.69824C99.8856 7.69828 108.543 8.8549 116.082 10.9062V10.9072C123.628 12.9682 130.021 15.8847 134.776 19.5791V19.5801C137.936 22.0445 140.374 24.8597 141.771 28.0781V28.0791C142.564 29.9109 143.004 31.8759 143 33.876V110.122C143.004 112.122 142.564 114.09 141.771 115.919V115.92C141.077 117.526 140.114 119.037 138.935 120.451L138.416 121.051C135.745 124.031 132.144 126.575 127.799 128.732L126.921 129.158C117.445 133.632 104.733 136.29 90.6562 136.302C81.4277 136.299 72.7696 135.145 65.2314 133.094H65.2324C57.6855 131.033 51.293 128.116 46.5352 124.421H46.5361C43.3762 121.954 40.9403 119.139 39.541 115.92C39.329 115.429 39.1488 114.918 38.9902 114.392L43.7012 110.816C43.7811 111.814 44.0283 112.793 44.458 113.792V113.793C44.9859 115.015 45.7949 116.256 46.8906 117.479V117.48C49.0667 119.928 52.432 122.31 56.6836 124.315V124.316C65.1827 128.353 77.3015 130.955 90.6572 130.943C99.4301 130.946 107.655 129.835 114.673 127.925L114.672 127.924C121.682 126.021 127.529 123.281 131.484 120.191L131.485 120.192C134.127 118.138 135.937 115.929 136.856 113.792L136.857 113.79C137.383 112.563 137.642 111.363 137.642 110.121V95.2197L135.966 96.7588C133.433 99.0834 130.266 101.144 126.527 102.916C117.213 107.313 104.613 109.963 90.6562 109.97C80.1971 109.967 70.4837 108.469 62.3525 105.871H62.3516C59.4819 104.948 56.816 103.89 54.3809 102.711L57.5674 100.292C66.1316 104.071 77.8163 106.457 90.6572 106.45V106.449C100.769 106.451 110.167 104.99 117.889 102.52L117.89 102.521C125.353 100.146 131.303 96.7585 134.782 93.041L135.111 92.6807C136.176 91.4815 136.979 90.2755 137.548 89.0537L137.642 88.8535V69.8057L135.966 71.3447C133.434 73.6694 130.266 75.728 126.527 77.5C117.213 81.8977 104.613 84.5467 90.6562 84.5537C86.6966 84.5537 82.8501 84.3258 79.1475 83.9131L83.3223 80.7441C85.7107 80.9175 88.1486 81.0363 90.6572 81.0342V81.0332C100.769 81.0354 110.167 79.5739 117.889 77.1035L117.89 77.1045C125.594 74.6559 131.686 71.1228 135.111 67.2646L135.11 67.2637C136.175 66.0665 136.979 64.8621 137.548 63.6406L137.642 63.4395V44.3926L135.966 45.9316C133.591 48.1109 130.659 50.057 127.221 51.752L126.527 52.0869C117.214 56.4865 104.613 59.133 90.6562 59.1396C80.1975 59.1396 70.4847 57.6415 62.3535 55.0439H62.3545C55.2908 52.7716 49.4596 49.7258 45.3447 45.9629L43.6699 44.4307V45.9082L38.3115 41.8418V33.877Z" fill="black" stroke="#C87851" stroke-width="2"/>
<path d="M65.4443 78.3735L25.8184 108.45V92.6899H1V64.0581H25.8184V48.2983L65.4443 78.3735Z" fill="#07070D" stroke="#C87851" stroke-width="2"/>
</g>
<defs>
<clipPath id="clip0_88_1035">
<rect width="144" height="144" fill="white"/>
</clipPath>
</defs>
</svg>
