<svg width="152" height="152" viewBox="0 0 152 152" fill="none" xmlns="http://www.w3.org/2000/svg">
<rect x="23" y="21" width="57" height="100" fill="#07070D"/>
<rect x="17" y="63" width="53" height="72" fill="#07070D"/>
<rect x="41" y="56" width="51" height="72" fill="#07070D"/>
<rect x="107" y="76" width="30" height="59" fill="#07070D"/>
<rect x="75" y="20" width="57" height="82" fill="#07070D"/>
<path d="M133 73.8889V27.4445C133 21.6241 128.265 16.8889 122.445 16.8889H29.5556C23.7353 16.8889 19.0001 21.6241 19.0001 27.4445V59.1111C15.5083 59.1111 12.6667 61.9527 12.6667 65.4445V128.778C12.6667 132.27 15.5083 135.111 19.0001 135.111H65.4445C68.9363 135.111 71.7779 132.27 71.7779 128.778H89.4711C91.4619 128.778 93.2964 127.87 94.504 126.289C95.7115 124.708 96.1042 122.698 95.5806 120.779L91.4302 105.556H103.445V128.778C103.445 132.27 106.286 135.111 109.778 135.111H133C136.492 135.111 139.333 132.27 139.333 128.778V80.2223C139.333 76.7305 136.492 73.8889 133 73.8889ZM67.5556 128.778C67.5556 129.941 66.6077 130.889 65.4445 130.889H19.0001C17.8369 130.889 16.889 129.941 16.889 128.778V124.556H67.5556V128.778ZM67.5556 120.333H16.889V73.8889H67.5556V120.333ZM67.5556 69.6667H16.889V65.4445C16.889 64.2812 17.8369 63.3334 19.0001 63.3334H65.4445C66.6077 63.3334 67.5556 64.2812 67.5556 65.4445V69.6667ZM91.5083 121.889C91.6835 122.529 91.5526 123.198 91.1494 123.726C90.7462 124.254 90.1361 124.556 89.4711 124.556H71.7779V120.333H91.084L91.5083 121.889ZM71.7779 116.111V105.556H87.0539L89.9334 116.111H71.7779ZM103.445 101.333H71.7779V88.6667H103.445V101.333ZM103.445 80.2223V84.4445H71.7779V65.4445C71.7779 61.9527 68.9363 59.1111 65.4445 59.1111H23.2223V27.4445C23.2223 23.9527 26.0639 21.1111 29.5556 21.1111H122.445C125.936 21.1111 128.778 23.9527 128.778 27.4445V73.8889H109.778C106.286 73.8889 103.445 76.7305 103.445 80.2223ZM135.111 128.778C135.111 129.941 134.163 130.889 133 130.889H109.778C108.615 130.889 107.667 129.941 107.667 128.778V124.556H135.111V128.778ZM135.111 120.333H107.667V88.6667H135.111V120.333ZM135.111 84.4445H107.667V80.2223C107.667 79.059 108.615 78.1111 109.778 78.1111H133C134.163 78.1111 135.111 79.059 135.111 80.2223V84.4445Z" fill="black" stroke="#C87851" stroke-width="2"/>
<path d="M32.2844 95.6162L23.8398 104.061L26.8254 107.046L35.27 98.6017L32.2844 95.6162Z" fill="black" stroke="#C87851" stroke-width="2"/>
<path d="M57.617 85.061L32.2834 110.395L35.269 113.38L60.6025 88.0465L57.617 85.061Z" fill="black" stroke="#C87851" stroke-width="2"/>
<path d="M49.1713 78.731L36.5054 91.397L39.4909 94.3825L52.1568 81.7166L49.1713 78.731Z" fill="black" stroke="#C87851" stroke-width="2"/>
<path d="M123.057 93.5103L112.503 104.064L115.488 107.049L126.042 96.4958L123.057 93.5103Z" fill="black" stroke="#C87851" stroke-width="2"/>
<path d="M127.278 101.964L116.724 112.518L119.71 115.503L130.264 104.949L127.278 101.964Z" fill="black" stroke="#C87851" stroke-width="2"/>
<path d="M80.8373 40.7305L68.1714 53.3965L71.1569 56.382L83.8229 43.7161L80.8373 40.7305Z" fill="black" stroke="#C87851" stroke-width="2"/>
<path d="M99.8385 36.5084L87.1726 49.1743L90.1581 52.1599L102.824 39.4939L99.8385 36.5084Z" fill="black" stroke="#C87851" stroke-width="2"/>
<path d="M82.949 53.3987L74.5044 61.8433L77.4899 64.8288L85.9345 56.3842L82.949 53.3987Z" fill="black" stroke="#C87851" stroke-width="2"/>
<path d="M93.5133 28.0689L85.0479 36.5344L88.0334 39.52L96.4989 31.0545L93.5133 28.0689Z" fill="black" stroke="#C87851" stroke-width="2"/>
<path d="M31.6668 25.3333H27.4446V29.5555H31.6668V25.3333Z" fill="black" stroke="#C87851" stroke-width="2"/>
<path d="M40.1111 25.3333H35.8889V29.5555H40.1111V25.3333Z" fill="black" stroke="#C87851" stroke-width="2"/>
<path d="M48.5557 25.3333H44.3335V29.5555H48.5557V25.3333Z" fill="black" stroke="#C87851" stroke-width="2"/>
</svg>
