<svg width="34" height="34" viewBox="0 0 34 34" fill="none" xmlns="http://www.w3.org/2000/svg">
<g clip-path="url(#clip0_88_883)">
<path d="M16.8845 13.592C18.8397 13.592 20.409 12.0227 20.409 10.0675C20.409 8.11232 18.8397 6.53015 16.8845 6.53015C14.9293 6.53015 13.36 8.09946 13.36 10.0547C13.36 12.0227 14.9422 13.592 16.8845 13.592ZM8.69069 23.8054H2.34915C0.291039 23.8054 0.17527 20.6668 2.38774 20.6668H7.88031L11.0318 16.0232C11.9579 14.7626 13.0256 14.158 14.5177 14.158H19.2128C20.7178 14.158 21.7725 14.7111 22.6987 16.036L25.863 20.6796H31.3942C33.6067 20.6796 33.478 23.8182 31.4714 23.8182H25.1298C24.6282 23.8182 24.0236 23.6382 23.6634 23.0979L21.2452 19.6506L21.2323 28.2946H12.5754L12.5625 19.6506L10.1442 23.0979C9.79693 23.6253 9.19236 23.8054 8.69069 23.8054Z" fill="white" stroke="white" stroke-width="0.25"/>
<path d="M4.36704 11.7397C2.30893 11.7397 0.636719 13.412 0.636719 15.4701C0.636719 17.5282 2.30893 19.2004 4.36704 19.2004C6.42515 19.2004 8.09736 17.5282 8.09736 15.4701C8.09736 13.412 6.42515 11.7397 4.36704 11.7397ZM4.36704 18.4543C2.72055 18.4543 1.36992 17.1165 1.36992 15.4572C1.36992 13.7979 2.72055 12.4729 4.36704 12.4729C6.01353 12.4729 7.36416 13.8107 7.36416 15.4701C7.33843 17.1165 6.00066 18.4543 4.36704 18.4543ZM6.2322 14.7369C6.16788 14.6211 6.01353 14.5439 5.85917 14.634L4.53426 15.2257V13.6564C4.53426 13.5663 4.50853 13.502 4.44422 13.4377C4.39277 13.3862 4.32845 13.3734 4.25127 13.3734C4.10978 13.3734 3.95542 13.4763 3.95542 13.6564V15.7016C3.95542 15.8174 4.01973 15.9203 4.12264 15.9717C4.17409 15.9975 4.21268 16.0103 4.26413 16.0103C4.31559 16.0103 4.35418 15.9975 4.40563 15.9717L6.11643 15.1613C6.19361 15.1228 6.24506 15.0584 6.27079 14.9813C6.27079 14.9041 6.27079 14.814 6.2322 14.7369Z" fill="white" stroke="white" stroke-width="0.25"/>
<path d="M29.1286 13.7463V13.2704L28.6269 13.1804C28.5883 13.0131 28.524 12.8588 28.434 12.7301L28.7298 12.3185L28.3954 11.9841L27.9837 12.2799C27.8422 12.1899 27.6879 12.1256 27.5335 12.087L27.4435 11.5853H26.9675L26.8775 12.087C26.7103 12.1256 26.5559 12.1899 26.4273 12.2799L26.0157 11.9841L25.6812 12.3185L25.9771 12.7301C25.887 12.8716 25.8227 13.026 25.7841 13.1804L25.2825 13.2704V13.7463L25.7841 13.8364C25.8227 14.0036 25.887 14.158 25.9771 14.2866L25.6812 14.6982L26.0157 15.0327L26.4273 14.7368C26.5688 14.8268 26.7231 14.8912 26.8775 14.9298L26.9675 15.4314H27.4435L27.5335 14.9298C27.7007 14.8912 27.8551 14.8268 27.9837 14.7368L28.3954 15.0327L28.7298 14.6982L28.434 14.2866C28.524 14.1451 28.5883 13.9907 28.6269 13.8364L29.1286 13.7463ZM27.1991 14.2737C26.7746 14.2737 26.4402 13.9264 26.4402 13.5148C26.4402 13.1032 26.7875 12.7559 27.1991 12.7559C27.6236 12.7559 27.958 13.1032 27.958 13.5148C27.958 13.9264 27.6236 14.2737 27.1991 14.2737ZM32.4601 16.4991L33.0518 16.1389L32.8074 15.5343L32.1385 15.6887C32.0099 15.5086 31.8556 15.3414 31.6626 15.2127L31.817 14.5439L31.2253 14.2995L30.8522 14.8783C30.6336 14.8397 30.402 14.8397 30.1833 14.8783L29.8232 14.2995L29.2186 14.5439L29.373 15.2127C29.1929 15.3414 29.0257 15.4957 28.897 15.6887L28.2281 15.5343L27.9837 16.126L28.5626 16.4991C28.524 16.7177 28.524 16.9493 28.5626 17.1679L27.9709 17.5281L28.2153 18.1327L28.8842 17.9783C29.0128 18.1584 29.1672 18.3256 29.3601 18.4543L29.2057 19.1231L29.7974 19.3675L30.1705 18.7887C30.3892 18.8273 30.6207 18.8273 30.8394 18.7887L31.1995 19.3675L31.8041 19.1231L31.6497 18.4543C31.8298 18.3256 31.9971 18.1713 32.1257 17.9783L32.7946 18.1327L33.039 17.541L32.4601 17.1679C32.4987 16.9364 32.4987 16.7177 32.4601 16.4991ZM31.4568 17.2194C31.2381 17.7468 30.6336 17.9912 30.1062 17.7725C29.5788 17.5538 29.3344 16.9493 29.553 16.4219C29.7717 15.8945 30.3763 15.6501 30.9037 15.8688C31.4311 16.0874 31.6883 16.692 31.4568 17.2194Z" fill="white" stroke="white" stroke-width="0.25"/>
</g>
<defs>
<clipPath id="clip0_88_883">
<rect width="32.9297" height="32.9297" fill="white" transform="translate(0.379395 0.934692)"/>
</clipPath>
</defs>
</svg>
