<svg width="24" height="24" viewBox="0 0 24 24" fill="none" xmlns="http://www.w3.org/2000/svg">
<g clip-path="url(#clip0_77_443)">
<path d="M23.3669 5.4597C23.2719 4.97985 23.0578 4.52633 22.7455 4.14505C22.682 4.065 22.6157 3.99379 22.5431 3.92155C21.9874 3.3629 21.2144 3.04248 20.4223 3.04248H3.57763C2.77665 3.04248 2.02333 3.35482 1.45642 3.92186C1.38467 3.99343 1.31815 4.06536 1.25229 4.14795C0.941282 4.52763 0.72813 4.98052 0.635453 5.46104C0.596723 5.64974 0.577179 5.84527 0.577179 6.04307V17.8736C0.577179 18.2852 0.660798 18.686 0.826563 19.067C0.970017 19.4053 1.18768 19.7261 1.45625 19.9945C1.52389 20.0619 1.59109 20.124 1.66284 20.1845C2.1998 20.6292 2.87973 20.8739 3.57763 20.8739H20.4223C21.1247 20.8739 21.804 20.6283 22.3395 20.1796C22.4111 20.1217 22.4774 20.0609 22.5438 19.9945C22.8034 19.7352 23.0097 19.4372 23.158 19.1086L23.1776 19.0618C23.3402 18.688 23.4228 18.2885 23.4228 17.8736V6.04307C23.4228 5.84786 23.404 5.65104 23.3669 5.4597ZM2.131 4.95741C2.17343 4.8953 2.2276 4.83154 2.29672 4.76188C2.6398 4.41898 3.0948 4.23028 3.57759 4.23028H20.4222C20.9093 4.23028 21.3644 4.41929 21.7037 4.76255C21.7623 4.82176 21.8182 4.88749 21.8671 4.95317L21.9959 5.1263L13.0049 12.9624C12.7277 13.2054 12.3708 13.3391 11.9999 13.3391C11.6326 13.3391 11.276 13.2057 10.9956 12.9627L2.01351 5.12853L2.131 4.95741ZM1.771 17.9781C1.76613 17.9458 1.76502 17.9101 1.76502 17.8736V6.28804L8.74232 12.3748L1.83543 18.3968L1.771 17.9781ZM21.3212 19.4473C21.0511 19.6031 20.7401 19.6857 20.4223 19.6857H3.57763C3.25963 19.6857 2.94875 19.6031 2.67889 19.4473L2.39653 19.2836L9.53294 13.0645L10.3151 13.7447C10.7842 14.152 11.3825 14.3766 12 14.3766C12.6197 14.3766 13.219 14.152 13.6878 13.7447L14.4696 13.0641L21.6036 19.284L21.3212 19.4473ZM22.2347 17.8736C22.2347 17.9094 22.234 17.9449 22.2295 17.9764L22.1677 18.399L15.2578 12.378L22.2347 6.29098V17.8736Z" fill="white"/>
</g>
<defs>
<clipPath id="clip0_77_443">
<rect width="22.8457" height="22.8457" fill="white" transform="translate(0.577179 0.535156)"/>
</clipPath>
</defs>
</svg>
