<svg width="25" height="25" viewBox="0 0 25 25" fill="none" xmlns="http://www.w3.org/2000/svg">
<g clip-path="url(#clip0_88_712)">
<path d="M14.1841 6.64758C14.1848 6.89211 14.1869 7.68912 14.1899 8.82142L18.083 8.81101L17.6702 12.2825L14.1992 12.2918C14.2135 17.6438 14.2327 24.8158 14.2327 24.8158L9.62553 24.8281C9.62553 24.8281 9.6066 17.7511 9.59204 12.3041L7.1914 12.3106L7.18212 8.84016L9.58276 8.83374C9.57908 7.45747 9.57646 6.47884 9.57573 6.20635C9.57226 4.90811 9.4728 4.29238 10.0218 3.28488C10.571 2.27743 12.1242 0.943565 14.8169 0.968378C17.5102 0.994356 18.6461 1.25041 18.6461 1.25041L18.0727 4.95057C18.0727 4.95057 16.3517 4.50106 15.5079 4.66516C14.6654 4.8293 14.1806 5.34989 14.1841 6.64758Z" fill="#00B4D8"/>
</g>
<defs>
<clipPath id="clip0_88_712">
<rect width="23.8931" height="23.8931" fill="white" transform="translate(0.956688 0.981445) rotate(-0.153204)"/>
</clipPath>
</defs>
</svg>
