<svg width="28" height="28" viewBox="0 0 28 28" fill="none" xmlns="http://www.w3.org/2000/svg">
<path d="M5.11949 4.25823C5.18039 3.12738 5.44916 2.63498 6.22263 2.23807C7.05489 1.81088 8.36984 2.00513 9.91861 2.78421C10.5857 3.11993 10.6535 3.12662 11.8206 2.97381C13.372 2.77062 15.3698 2.76599 16.8027 2.96231C17.8862 3.11078 17.9573 3.10303 18.6242 2.76303C20.8167 1.64541 22.5502 1.71352 23.1811 2.94203C23.496 3.55524 23.5584 5.14842 23.319 6.46321C23.1863 7.19213 23.2008 7.28305 23.5266 7.76027C25.8183 11.1182 24.1881 16.5754 20.2818 18.6208C19.9829 18.7773 19.7309 18.8744 19.5256 18.9534C18.8949 19.1962 18.7035 19.2699 18.9385 20.3788C19.0517 20.9121 19.1898 22.2386 19.2456 23.3267C19.3465 25.2934 19.3451 25.3071 19.0012 25.7094C18.5331 26.2565 17.8563 26.2675 17.3962 25.7355C17.0962 25.3886 17.0666 25.2244 17.063 23.8828C17.0577 21.9001 16.8368 20.5828 16.3203 19.455C15.7061 18.1127 16.1574 17.6105 17.5531 17.3064C19.4929 16.8837 21.0057 15.6817 21.8459 13.8957C22.6447 12.1979 22.7595 9.85434 21.3033 8.43311C20.8889 7.94337 20.859 7.49885 21.1503 6.15743C21.2592 5.65607 21.3499 5.0094 21.3519 4.72024C21.3548 4.26358 21.313 4.19474 21.0326 4.19549C20.8551 4.19596 20.1777 4.45596 19.5274 4.77319L18.4895 5.27968C18.3951 5.32572 18.2894 5.34361 18.1851 5.33192C15.5417 5.03566 13.0307 5.03769 10.376 5.35399C10.2714 5.36645 10.1652 5.34913 10.0702 5.30337L9.03019 4.80211C8.37816 4.48778 7.69937 4.23114 7.52194 4.23162C7.11168 4.23271 7.10632 4.53561 7.48508 6.33413C7.71645 7.43254 7.87082 7.67701 7.21281 8.55755C6.22652 9.87741 5.98365 11.5137 6.51903 13.2309C7.19381 15.3948 8.83592 16.8534 11.1403 17.3354C12.5295 17.626 12.8934 18.009 12.3675 19.6024C11.9535 20.8564 11.6905 21.18 11.084 21.1816C10.268 21.1838 9.75497 20.4783 10.0343 19.7378C10.1573 19.4115 10.1204 19.3768 9.3552 19.1C7.01939 18.2555 5.22948 16.3533 4.40675 13.841C3.77083 11.8994 4.04158 9.36915 5.04932 7.83757C5.39243 7.31609 5.39765 7.27193 5.23421 6.27582C5.14174 5.71192 5.09012 4.80409 5.11949 4.25823Z" fill="#00B4D8"/>
<path d="M4.34266 18.4767C4.00504 17.9732 3.32318 17.8387 2.81968 18.1764C2.31619 18.5139 2.1817 19.1958 2.51932 19.6993C2.76857 20.071 3.06638 20.3762 3.31926 20.6276C3.36588 20.674 3.41118 20.7188 3.45541 20.7625C3.66723 20.9718 3.85426 21.1566 4.0422 21.376C4.45787 21.8613 4.87301 22.5153 5.11109 23.6893C5.21714 24.2123 5.594 24.4932 5.80273 24.6158C6.02909 24.7487 6.27624 24.8267 6.47959 24.8774C6.89556 24.9811 7.40032 25.0342 7.87931 25.0647C8.40513 25.0982 8.97481 25.1079 9.4842 25.1097C9.4862 25.7154 9.9788 26.2052 10.5848 26.2036C11.191 26.202 11.6811 25.7093 11.6795 25.103L11.6766 24.0054C11.6749 23.3991 11.1822 22.909 10.576 22.9107C10.4725 22.9109 10.3605 22.9116 10.242 22.9123C9.59781 22.916 8.75817 22.9208 8.01855 22.8738C7.6619 22.8512 7.36867 22.8185 7.1536 22.7781C6.81909 21.4795 6.282 20.6163 5.70955 19.9479C5.4565 19.6526 5.19459 19.3942 4.98155 19.184C4.94167 19.1447 4.9035 19.1071 4.86741 19.0712C4.6216 18.8267 4.46076 18.6528 4.34266 18.4767Z" fill="#00B4D8"/>
</svg>
