<svg width="64" height="64" viewBox="0 0 64 64" fill="none" xmlns="http://www.w3.org/2000/svg">
<path fill-rule="evenodd" clip-rule="evenodd" d="M33.6 18.6667H46.9333L48.6 20.3334V27.1H50.3333L52 28.7667V32L50.3333 33.6667H48.6V43.6667L46.9333 45.3334H36.5333L28.2 54.5334L25.3333 53.3334V45.3334H17L15.3333 43.2V33.6667H13.6667L12 32V28.7667L13.6667 27.1H15.3333V19.8667L17.1 18.6667H30.4333V14.8667C29.9109 14.5887 29.4719 14.1766 29.1614 13.6728C28.8509 13.169 28.6802 12.5917 28.6667 12C28.6667 11.116 29.0179 10.2681 29.643 9.643C30.2681 9.01788 31.1159 8.66669 32 8.66669C32.8841 8.66669 33.7319 9.01788 34.357 9.643C34.9821 10.2681 35.3333 11.116 35.3333 12C35.3059 12.5711 35.1321 13.1256 34.8286 13.6101C34.525 14.0946 34.1019 14.4929 33.6 14.7667V18.6667ZM45.3333 32V22H18.6667V41.5334L27 42H28.6667V49.3L34.6667 42.5L35.8333 42H45.3333V32ZM38.2667 33.7C37.0185 34.9513 35.4307 35.8089 33.7 36.1667V36.1334C32.2562 36.4096 30.7668 36.3293 29.3611 35.8994C27.9553 35.4696 26.6757 34.7031 25.6333 33.6667L23.3 36.0334C24.4333 37.1667 25.7833 38.06 27.2667 38.6667C28.7667 39.2934 30.3733 39.62 32 39.6334C35.2225 39.6137 38.3094 38.3335 40.6 36.0667L38.2667 33.7ZM26.9667 27H23.6333V30.3334H26.9667V27ZM36.9667 27H40.3V30.3334H36.9667V27Z" fill="white"/>
</svg>
