<svg width="22" height="23" viewBox="0 0 22 23" fill="none" xmlns="http://www.w3.org/2000/svg">
<g clip-path="url(#clip0_88_721)">
<path fill-rule="evenodd" clip-rule="evenodd" d="M6.73014 1.08926C5.00886 1.17154 3.51789 1.59641 2.31627 2.79938C1.11046 4.00866 0.698809 5.50777 0.625498 7.21156C0.579937 8.27499 0.318376 16.3087 1.14477 18.4132C1.70205 19.8329 2.79508 20.9227 4.23079 21.4742C4.90072 21.7327 5.66514 21.9068 6.78593 21.9553C16.1574 22.3543 19.6302 22.1141 21.0849 18.3598C21.3431 17.6916 21.5199 16.9278 21.5664 15.8098C21.9695 6.41429 21.4664 4.37934 19.8289 2.75255C18.5301 1.4639 17.0041 0.588398 6.73014 1.08926ZM6.86714 20.0657C5.84107 20.0223 5.28398 19.8528 4.91215 19.71C3.97678 19.3493 3.27306 18.6522 2.90965 17.7243C2.28034 16.1252 2.46731 8.52204 2.51979 7.2917C2.57128 6.08655 2.81246 4.98461 3.66041 4.13213C4.70985 3.07966 6.06797 2.5616 15.3258 2.95461C16.5339 3.00596 17.6384 3.24663 18.493 4.09247C19.548 5.1393 20.0736 6.50786 19.6732 15.7302C19.6296 16.7537 19.4596 17.3095 19.3164 17.6804C18.3706 20.1234 16.1807 20.468 6.86714 20.0657ZM15.4357 5.89552C15.4376 6.59039 16.0041 7.15392 16.7018 7.15205C17.3994 7.15019 17.964 6.58363 17.9622 5.88876C17.9603 5.1939 17.3927 4.63088 16.6951 4.63274C15.9974 4.63461 15.4338 5.20065 15.4357 5.89552ZM5.69314 11.5246C5.7011 14.5014 8.12669 16.9084 11.1109 16.9004C14.0951 16.8924 16.5078 14.4725 16.4998 11.4957C16.4918 8.51891 14.0663 6.11347 11.0821 6.12145C8.09787 6.12943 5.68518 8.5478 5.69314 11.5246ZM7.5893 11.5195C7.58414 9.58819 9.14992 8.01701 11.0871 8.01183C13.0243 8.00665 14.5985 9.56943 14.6036 11.5008C14.6088 13.4332 13.043 15.0049 11.1058 15.01C9.16863 15.0152 7.59447 13.4519 7.5893 11.5195Z" fill="#00B4D8"/>
</g>
<defs>
<clipPath id="clip0_88_721">
<rect width="21.1501" height="21.1501" fill="white" transform="translate(0.522629 0.976074) rotate(-0.153204)"/>
</clipPath>
</defs>
</svg>
