<svg width="50" height="50" viewBox="0 0 50 50" fill="none" xmlns="http://www.w3.org/2000/svg">
<path d="M26.9688 13.4766C29.4799 13.4766 31.5156 11.4409 31.5156 8.92969C31.5156 6.41852 29.4799 4.38281 26.9688 4.38281C24.4576 4.38281 22.4219 6.41852 22.4219 8.92969C22.4219 11.4409 24.4576 13.4766 26.9688 13.4766Z" stroke="#00B4D8" stroke-width="3"/>
<path d="M41.8984 29.2344C44.4096 29.2344 46.4453 27.1987 46.4453 24.6875C46.4453 22.1763 44.4096 20.1406 41.8984 20.1406C39.3873 20.1406 37.3516 22.1763 37.3516 24.6875C37.3516 27.1987 39.3873 29.2344 41.8984 29.2344Z" stroke="#00B4D8" stroke-width="3"/>
<path d="M26.9688 44.0547C29.4799 44.0547 31.5156 42.019 31.5156 39.5078C31.5156 36.9966 29.4799 34.9609 26.9688 34.9609C24.4576 34.9609 22.4219 36.9966 22.4219 39.5078C22.4219 42.019 24.4576 44.0547 26.9688 44.0547Z" stroke="#00B4D8" stroke-width="3"/>
<path d="M11.8438 37.3828C14.3549 37.3828 16.3906 35.3471 16.3906 32.8359C16.3906 30.3248 14.3549 28.2891 11.8438 28.2891C9.33258 28.2891 7.29688 30.3248 7.29688 32.8359C7.29688 35.3471 9.33258 37.3828 11.8438 37.3828Z" stroke="#00B4D8" stroke-width="3"/>
<path d="M11.8438 19.6016C14.3549 19.6016 16.3906 17.5659 16.3906 15.0547C16.3906 12.5435 14.3549 10.5078 11.8438 10.5078C9.33258 10.5078 7.29688 12.5435 7.29688 15.0547C7.29688 17.5659 9.33258 19.6016 11.8438 19.6016Z" stroke="#00B4D8" stroke-width="3"/>
<path d="M26.9609 26.5391C28.9889 26.5391 30.6328 24.8951 30.6328 22.8672C30.6328 20.8393 28.9889 19.1953 26.9609 19.1953C24.933 19.1953 23.2891 20.8393 23.2891 22.8672C23.2891 24.8951 24.933 26.5391 26.9609 26.5391Z" stroke="#00B4D8" stroke-width="3"/>
<path d="M15.7578 12.7344L22.5781 10.1016" stroke="#00B4D8" stroke-width="3"/>
<path d="M30.1562 12.1797L38.6563 21.5" stroke="#00B4D8" stroke-width="3"/>
<path d="M39.1172 28.2812L30.2109 36.3203" stroke="#00B4D8" stroke-width="3"/>
<path d="M14.3438 18.8516L24.1484 35.9453" stroke="#00B4D8" stroke-width="3"/>
<path d="M15.8672 34.9531L22.4219 37.9922" stroke="#00B4D8" stroke-width="3"/>
<path d="M13.5469 28.6172L24.5078 12.75" stroke="#00B4D8" stroke-width="3"/>
<path d="M16.0312 16.8359L23.7031 21.1719" stroke="#00B4D8" stroke-width="3"/>
<path d="M30.6406 23.2812L37.3516 23.7891" stroke="#00B4D8" stroke-width="3"/>
<path d="M26.9609 26.5469L26.9688 34.9531" stroke="#00B4D8" stroke-width="3"/>
</svg>
