<svg width="30" height="30" viewBox="0 0 30 30" fill="none" xmlns="http://www.w3.org/2000/svg">
<path d="M12.665 7.23356L13.4372 8.61731C14.1341 9.86606 13.8544 11.5042 12.7567 12.6019C12.7567 12.6019 11.4255 13.9333 13.8393 16.3472C16.2523 18.7603 17.5847 17.4298 17.5847 17.4298C18.6823 16.3321 20.3204 16.0524 21.5692 16.7493L22.9529 17.5215C24.8386 18.5739 25.0612 21.2182 23.4039 22.8757C22.4079 23.8717 21.1878 24.6466 19.8391 24.6977C17.5687 24.7838 13.7129 24.2092 9.84509 20.3414C5.97731 16.4736 5.40269 12.6178 5.48877 10.3474C5.5399 8.99866 6.31484 7.7786 7.31078 6.78267C8.96822 5.12523 11.6126 5.34793 12.665 7.23356Z" fill="white"/>
</svg>
