<svg width="49" height="49" viewBox="0 0 49 49" fill="none" xmlns="http://www.w3.org/2000/svg">
<path fill-rule="evenodd" clip-rule="evenodd" d="M18.8808 9.12919C11.3392 13.9725 7.14954 19.6097 6.31175 26.0407C5.0075 36.0524 13.9607 40.9528 18.4972 36.5498C23.0337 32.1469 20.3144 26.5582 17.0295 25.0306C13.7446 23.5028 11.7358 24.0349 12.0862 21.9935C12.4366 19.9521 17.11 14.292 21.2158 11.6561C21.4882 11.4244 21.5918 10.975 21.3296 10.6341C21.157 10.4098 20.8186 9.96999 20.3144 9.31461C19.8734 8.74151 19.451 8.76295 18.8808 9.12919Z" fill="white"/>
<path fill-rule="evenodd" clip-rule="evenodd" d="M38.7353 9.12919C31.1938 13.9725 27.0041 19.6097 26.1663 26.0407C24.8621 36.0524 33.8154 40.9528 38.3519 36.5498C42.8884 32.1469 40.169 26.5582 36.8841 25.0306C33.5992 23.5028 31.5903 24.0349 31.9408 21.9935C32.2912 19.9521 36.9646 14.292 41.0704 11.6561C41.3428 11.4244 41.4465 10.975 41.1841 10.6341C41.0116 10.4098 40.6732 9.96999 40.169 9.31461C39.7281 8.74151 39.3056 8.76295 38.7353 9.12919Z" fill="white"/>
</svg>
