<svg width="28" height="28" viewBox="0 0 28 28" fill="none" xmlns="http://www.w3.org/2000/svg">
<g clip-path="url(#clip0_88_916)">
<path d="M10.5257 14.6951H9.41311C8.74556 14.6951 8.30054 14.2501 8.30054 13.5825V12.47C8.30054 11.8024 8.74556 11.3574 9.41311 11.3574H10.5257C11.1932 11.3574 11.6382 11.8024 11.6382 12.47V13.5825C11.6382 14.2501 11.1932 14.6951 10.5257 14.6951Z" fill="#C87851"/>
<path d="M18.3138 14.6951H17.2012C16.5337 14.6951 16.0886 14.2501 16.0886 13.5825V12.47C16.0886 11.8024 16.5337 11.3574 17.2012 11.3574H18.3138C18.9813 11.3574 19.4263 11.8024 19.4263 12.47V13.5825C19.4263 14.2501 18.9813 14.6951 18.3138 14.6951Z" fill="#C87851"/>
<path d="M13.8636 0.788086C15.0874 0.788086 16.0887 1.78939 16.0887 3.01321C16.0887 4.23703 15.0874 5.23833 13.8636 5.23833C12.6397 5.23833 11.6384 4.23703 11.6384 3.01321C11.6384 1.78939 12.6397 0.788086 13.8636 0.788086Z" fill="#C87851"/>
<path d="M13.8635 27.4896C10.8595 27.4896 8.41188 25.7095 8.30062 22.8168C7.0768 22.483 5.74171 21.9267 4.40663 21.2592L3.85034 20.9254V15.8077C3.85034 10.6899 7.74434 6.46213 12.7509 5.90585V2.45691H14.976V5.90585C19.9826 6.46213 23.8766 10.6899 23.8766 15.8077V20.9254L23.3203 21.2592C22.319 21.8155 20.9839 22.3718 19.4263 22.8168C19.3151 25.7095 16.8674 27.4896 13.8635 27.4896ZM10.637 23.2618C11.082 24.7082 12.3059 25.2644 13.8635 25.2644C15.4211 25.2644 16.7562 24.7082 17.0899 23.2618C15.3098 23.5956 13.4184 23.7068 10.637 23.2618ZM6.07548 19.5904C9.07942 21.0367 11.9721 21.3705 13.8635 21.3705C17.2012 21.3705 19.8714 20.4804 21.6515 19.5904V17.9215C19.6488 18.9228 16.6449 19.1453 13.8635 19.1453C11.082 19.1453 8.07811 18.9228 6.07548 17.9215V19.5904ZM6.18674 15.0289C6.298 15.8077 8.63439 16.9202 13.9747 16.9202C18.7588 16.9202 21.6515 15.9189 21.7627 15.0289C21.429 11.1349 18.0912 8.01972 13.9747 8.01972C9.85822 8.01972 6.52051 11.1349 6.18674 15.0289Z" fill="#C87851"/>
</g>
<defs>
<clipPath id="clip0_88_916">
<rect width="26.7017" height="26.7015" fill="white" transform="translate(0.512695 0.788086)"/>
</clipPath>
</defs>
</svg>
