<svg width="40" height="40" viewBox="0 0 40 40" fill="none" xmlns="http://www.w3.org/2000/svg">
<g clip-path="url(#clip0_88_791)">
<path d="M18.2383 8.74115L7.10545 10.7993C6.72092 10.8737 4.87521 11.2179 3.75951 13.1699C3.5642 13.5104 1.4585 17.7011 1.4585 17.7011L4.03787 19.304L6.68678 16.0972L9.93139 18.3665L18.2383 8.74115Z" fill="#00B4D8"/>
<path d="M31.3155 21.8173L29.2574 32.9501C29.183 33.3347 28.8375 35.1816 26.8868 36.2973C26.5462 36.4914 22.3543 38.5972 22.3543 38.5972L20.7515 36.0178L23.9583 33.3689L21.689 30.1242L31.3155 21.8173Z" fill="#00B4D8"/>
<path d="M12.1701 20.283L11.5818 20.9494C10.864 21.8357 10.9312 23.1223 11.7393 23.9292L16.1277 28.3176C16.9346 29.1258 18.22 29.1929 19.1075 28.4751L19.774 27.8868L12.1701 20.283Z" fill="#00B4D8"/>
<path d="M38.7118 1.34492C34.6224 -2.74445 25.6746 3.78508 21.4925 8.59469L12.8779 18.3848L21.6719 27.1788L31.462 18.563C36.2715 14.3809 42.8011 5.43305 38.7118 1.34492ZM20.7258 19.3295C19.7725 18.3773 19.7725 16.8332 20.7258 15.8798C21.678 14.9265 23.2234 14.9265 24.1755 15.8798C25.1289 16.8332 25.1289 18.3774 24.1768 19.3295C23.2234 20.283 21.678 20.283 20.7258 19.3295ZM27.3128 12.7427C25.9554 11.3852 25.9554 9.18555 27.314 7.8293C28.6702 6.47062 30.8711 6.47062 32.2274 7.82805C33.5848 9.18547 33.5848 11.3852 32.2274 12.7426C30.8711 14.1001 28.6702 14.1001 27.3128 12.7427Z" fill="#00B4D8"/>
<path d="M12.8756 36.2778L15.422 29.8593L13.9462 28.3847L12.5972 30.942L11.899 29.5468L9.35498 30.488L10.6794 27.9074L9.28537 27.2104L11.5302 25.9689L10.0873 24.5248C8.72748 25.2585 3.89717 27.0627 3.89717 27.0627C3.85936 27.0773 3.8349 27.1115 3.83248 27.1505C3.82881 27.1909 3.84834 27.2274 3.88131 27.2482L6.3435 28.7631C6.3899 28.7924 6.40701 28.851 6.38256 28.8998L2.86568 32.341C2.84615 32.3801 2.95725 32.5009 2.99756 32.4862L5.40842 32.8634L-0.000488281 38.2723L1.67311 39.9435L8.09889 33.5177L8.10014 36.3009C8.10014 36.3437 8.12459 36.3815 8.16482 36.3986C8.20389 36.4145 8.24787 36.4059 8.27834 36.3766L10.7344 33.9205C10.7552 33.8986 10.7845 33.8876 10.8162 33.89C10.8468 33.8912 10.8736 33.9059 10.8919 33.9303L12.6949 36.3021C12.7169 36.3327 12.7535 36.3473 12.7913 36.3424C12.8304 36.3364 12.861 36.312 12.8756 36.2778Z" fill="#00B4D8"/>
</g>
<defs>
<clipPath id="clip0_88_791">
<rect width="40" height="40" fill="white"/>
</clipPath>
</defs>
</svg>
