<svg width="140" height="140" viewBox="0 0 140 140" fill="none" xmlns="http://www.w3.org/2000/svg">
<rect x="34.0789" y="30.3945" width="70.9211" height="82.8948" fill="#07070D"/>
<path d="M70 75.375C71.0853 75.375 71.912 75.7323 72.4648 76.2852C73.0177 76.838 73.375 77.6647 73.375 78.75V87.5C73.375 88.5853 73.0177 89.412 72.4648 89.9648C71.912 90.5177 71.0853 90.875 70 90.875C68.9147 90.875 68.088 90.5177 67.5352 89.9648C66.9823 89.412 66.625 88.5853 66.625 87.5V78.75C66.625 77.6647 66.9823 76.838 67.5352 76.2852C68.088 75.7323 68.9147 75.375 70 75.375Z" fill="#07070D" stroke="#C87851" stroke-width="2"/>
<path d="M70 44.75C76.8852 44.75 82.125 49.9898 82.125 56.875V60.25H57.875V56.875C57.875 49.9898 63.1148 44.75 70 44.75Z" fill="#07070D" stroke="#C87851" stroke-width="2"/>
<path d="M85.3662 6.05859C86.0228 4.41759 87.6557 3.69061 89.4561 4.03711C99.7911 7.06 109.694 12.6628 117.438 19.9766L117.479 20.0156L117.525 20.0498C118.705 20.9346 118.849 22.8892 117.763 24.3379C113.59 29.9022 113.124 36.8837 116.369 42.9111C119.621 48.9507 126.115 52.2018 133.042 51.3135C134.888 51.33 136.517 52.4358 136.832 54.0088L136.837 54.0322L136.843 54.0547C138.129 59.1984 138.562 64.7983 138.562 70C138.562 75.1409 137.706 80.3072 136.4 85.9629L136.397 85.9766L136.395 85.9912C136.044 87.7425 134.305 89.0162 132.759 88.707L132.727 88.7002L132.694 88.6963C125.733 87.7683 119.198 91.0232 115.932 97.0889C112.686 103.116 113.152 110.098 117.325 115.662C117.861 116.376 118.096 117.133 118.057 117.851C118.017 118.557 117.705 119.31 116.993 120.027C108.818 127.336 99.3785 132.916 89.1035 135.938H87.9375C87.2375 135.937 86.6696 135.765 86.1953 135.449C85.72 135.132 85.2827 134.632 84.9072 133.89C82.5395 127.823 76.0476 123.688 69.5625 123.688C63.0456 123.688 56.9918 127.419 54.2061 133.919L54.2012 133.93L54.1963 133.941C53.5396 135.583 51.9062 136.309 50.1055 135.962C39.7708 132.939 29.8678 127.337 22.124 120.023L22.083 119.984L22.0371 119.95L21.9297 119.864C20.8498 118.944 20.7472 117.066 21.7998 115.662C25.973 110.098 26.4387 103.116 23.1934 97.0889C19.9509 91.0671 13.4678 87.7945 6.95215 88.6855C5.10814 88.6667 3.48223 87.5625 3.16797 85.9912L3.16309 85.9678L3.15723 85.9453L2.91992 84.9668C1.7556 80.0527 1 74.8258 1 70C1 64.8526 1.85878 59.2485 3.15723 54.0547L3.16309 54.0322L3.16797 54.0088C3.51822 52.2575 5.25754 50.9839 6.80371 51.293L6.83594 51.2998L6.86816 51.3037C13.829 52.2317 20.3647 48.9768 23.6309 42.9111C26.8761 36.8837 26.4105 29.9022 22.2373 24.3379C21.7017 23.6238 21.4661 22.8665 21.5059 22.1494C21.5453 21.4397 21.8587 20.6808 22.5781 19.96C30.3194 12.6543 40.2158 7.05784 50.543 4.03711C52.3436 3.69016 53.9771 4.4173 54.6338 6.05859C56.9845 12.1536 63.4963 16.3125 70 16.3125C76.5169 16.3125 82.5707 12.5811 85.3564 6.08105L85.3613 6.07031L85.3662 6.05859ZM70 34C57.1977 34 47.125 44.0727 47.125 56.875V64.2949C44.4736 66.6852 42.75 70.3236 42.75 74.375V91.875C42.75 99.8648 48.8852 106 56.875 106H83.125C91.1148 106 97.25 99.8648 97.25 91.875V74.375C97.25 70.3236 95.5264 66.6852 92.875 64.2949V56.875C92.875 44.0727 82.8023 34 70 34Z" fill="#07070D" stroke="#C87851" stroke-width="2"/>
</svg>
