<svg width="27" height="26" viewBox="0 0 27 26" fill="none" xmlns="http://www.w3.org/2000/svg">
<g clip-path="url(#clip0_88_908)">
<path d="M12.9463 8.60144C11.4427 8.60144 10.3513 9.7256 10.3513 11.2744C10.3513 12.8281 11.4426 13.9558 12.9463 13.9559H12.9464C13.7536 13.9558 14.4741 13.6565 14.9748 13.113C15.0435 13.0385 15.0387 12.9225 14.9642 12.8539L14.5867 12.506C14.5123 12.4375 14.3963 12.4422 14.3276 12.5166C13.9953 12.8772 13.5048 13.0758 12.9463 13.0759C12.0971 13.0758 11.4477 12.537 11.276 11.7145L15.28 11.7144C15.3812 11.7144 15.4634 11.6324 15.4634 11.5311V11.2744C15.4634 9.70052 14.4283 8.60144 12.9463 8.60144ZM12.9463 9.48158C13.7927 9.48158 14.3902 9.99434 14.5443 10.8342L11.2764 10.8343C11.4489 10.0169 12.098 9.48158 12.9463 9.48158Z" fill="#C87851"/>
<path d="M18.21 8.60144C16.6963 8.60144 15.5977 9.72553 15.5977 11.2743C15.5977 12.8281 16.6963 13.9559 18.21 13.9559C18.9347 13.9559 19.5983 13.6848 20.0786 13.1925C20.5583 12.7007 20.8224 12.0195 20.8224 11.2744C20.8224 9.72553 19.7237 8.60144 18.21 8.60144ZM18.21 13.0758C17.2063 13.0758 16.4778 12.3181 16.4778 11.2743C16.4778 10.2355 17.2063 9.48158 18.21 9.48158C19.2137 9.48158 19.9422 10.2356 19.9422 11.2744C19.9422 11.7886 19.7669 12.2515 19.4485 12.5779C19.1353 12.8989 18.6955 13.0758 18.21 13.0758Z" fill="#C87851"/>
<path d="M8.55843 10.8978C7.74994 10.6471 7.46286 10.4911 7.46286 10.1146C7.46286 9.54322 8.14769 9.48153 8.44217 9.48153C8.79438 9.48153 9.11285 9.56691 9.41591 9.74242C9.50356 9.79318 9.6157 9.76325 9.66646 9.67568L9.92383 9.23143C9.97458 9.14378 9.94473 9.03156 9.85708 8.98081C9.41635 8.72549 8.95354 8.60132 8.44217 8.60132C7.32996 8.60132 6.58272 9.20942 6.58272 10.1145C6.58272 11.2065 7.57398 11.5139 8.29768 11.7383C9.09312 11.9849 9.28484 12.1113 9.27465 12.3817C9.25528 12.8649 8.58622 12.9025 8.38159 12.9025C7.91321 12.9025 7.50482 12.7453 7.20065 12.448C7.16589 12.4141 7.12232 12.3967 7.07039 12.3958C7.02176 12.3964 6.97541 12.4162 6.94138 12.451L6.5825 12.8181C6.51172 12.8905 6.51304 13.0066 6.58551 13.0774C7.05074 13.5322 7.68862 13.7826 8.38166 13.7826C9.4253 13.7826 10.121 13.2463 10.1541 12.4158C10.1923 11.4043 9.24795 11.1116 8.55843 10.8978Z" fill="#C87851"/>
<path d="M25.6616 2.80737H1.61358C1.2085 2.80737 0.880127 3.13574 0.880127 3.54082V18.9721C0.880127 19.3772 1.2085 19.7056 1.61358 19.7056H10.0468C9.72355 21.2807 8.97586 22.0946 8.97051 22.1004C8.76566 22.312 8.7072 22.6255 8.82213 22.8967C8.93699 23.1678 9.20294 23.344 9.49743 23.344H17.7778C18.0723 23.344 18.3382 23.1678 18.4531 22.8967C18.5679 22.6255 18.5095 22.3119 18.3046 22.1004C18.296 22.0914 17.5507 21.2808 17.2282 19.7056H25.6616C26.0667 19.7056 26.3951 19.3772 26.3951 18.9721V3.54082C26.3951 3.13574 26.0667 2.80737 25.6616 2.80737ZM24.9282 18.2386H23.7318V18.0321C23.7318 17.627 23.4035 17.2986 22.9984 17.2986C22.5933 17.2986 22.2649 17.627 22.2649 18.0321V18.2386H21.4993V18.0321C21.4993 17.627 21.1709 17.2986 20.7658 17.2986C20.3607 17.2986 20.0323 17.627 20.0323 18.0321V18.2386H16.3811H10.8941H2.34704V4.27427H24.9282V18.2386Z" fill="#C87851"/>
</g>
<defs>
<clipPath id="clip0_88_908">
<rect width="25.5149" height="25.5148" fill="white" transform="translate(0.880127 0.318237)"/>
</clipPath>
</defs>
</svg>
