<svg width="117" height="117" viewBox="0 0 117 117" fill="none" xmlns="http://www.w3.org/2000/svg">
<g clip-path="url(#clip0_88_996)">
<rect x="3.80493" y="3.80493" width="68.4878" height="107.488" fill="#07070D"/>
<rect x="95.1218" y="22.8293" width="13.3171" height="19.0244" fill="#07070D"/>
<rect x="98.9268" y="29.4878" width="13.3171" height="16.1707" fill="#07070D"/>
<rect x="37.0977" y="25.6829" width="68.4878" height="64.6829" fill="#07070D"/>
<rect x="14.2683" y="19.9756" width="68.4878" height="66.5854" fill="#07070D"/>
<path d="M16.1707 29.0121H84.6585V95.5975H16.1707V29.0121Z" fill="#07070D"/>
<path d="M36.1463 26.1584H104.634V92.7438H36.1463V26.1584Z" fill="#07070D"/>
<path d="M101.908 70.0552L113.474 76.6571L105.457 90.7008L93.8918 84.0989L101.908 70.0552Z" fill="#07070D"/>
<path d="M12.1875 20.5H26.8125C27.3165 20.5 27.6593 20.6632 27.873 20.877C28.0868 21.0907 28.25 21.4335 28.25 21.9375C28.25 22.4415 28.0868 22.7843 27.873 22.998C27.6593 23.2118 27.3165 23.375 26.8125 23.375H12.1875C11.6835 23.375 11.3407 23.2118 11.127 22.998C10.9132 22.7843 10.75 22.4415 10.75 21.9375C10.75 21.4335 10.9132 21.0907 11.127 20.877C11.3407 20.6632 11.6835 20.5 12.1875 20.5Z" fill="black" stroke="#C87851" stroke-width="2"/>
<path d="M12.1875 88.75H21.9375C22.4415 88.75 22.7843 88.9132 22.998 89.127C23.2118 89.3407 23.375 89.6835 23.375 90.1875C23.375 90.6915 23.2118 91.0343 22.998 91.248C22.7843 91.4618 22.4415 91.625 21.9375 91.625H12.1875C11.6835 91.625 11.3407 91.4618 11.127 91.248C10.9132 91.0343 10.75 90.6915 10.75 90.1875C10.75 89.6835 10.9132 89.3407 11.127 89.127C11.3407 88.9132 11.6835 88.75 12.1875 88.75Z" fill="black" stroke="#C87851" stroke-width="2"/>
<path d="M31.6875 88.75H51.1875C51.6911 88.75 52.0333 88.9134 52.2471 89.127C52.4609 89.3407 52.625 89.6835 52.625 90.1875C52.625 90.6915 52.4609 91.0343 52.2471 91.248C52.0333 91.4616 51.6911 91.625 51.1875 91.625H31.6875C31.1835 91.625 30.8407 91.4618 30.627 91.248C30.4132 91.0343 30.25 90.6915 30.25 90.1875C30.25 89.6835 30.4132 89.3407 30.627 89.127C30.8407 88.9132 31.1835 88.75 31.6875 88.75Z" fill="black" stroke="#C87851" stroke-width="2"/>
<path d="M36.5625 20.5H51.1875C51.6915 20.5 52.0343 20.6632 52.248 20.877C52.4618 21.0907 52.625 21.4335 52.625 21.9375C52.625 22.4415 52.4618 22.7843 52.248 22.998C52.0343 23.2118 51.6915 23.375 51.1875 23.375H36.5625C36.0585 23.375 35.7157 23.2118 35.502 22.998C35.2882 22.7843 35.125 22.4415 35.125 21.9375C35.125 21.4335 35.2882 21.0907 35.502 20.877C35.7157 20.6632 36.0585 20.5 36.5625 20.5Z" fill="black" stroke="#C87851" stroke-width="2"/>
<path d="M46.3125 30.25H51.1875C51.6915 30.25 52.0343 30.4132 52.248 30.627C52.4618 30.8407 52.625 31.1835 52.625 31.6875C52.625 32.1915 52.4618 32.5343 52.248 32.748C52.0343 32.9618 51.6915 33.125 51.1875 33.125H46.3125C45.8085 33.125 45.4657 32.9618 45.252 32.748C45.0382 32.5343 44.875 32.1915 44.875 31.6875C44.875 31.1835 45.0382 30.8407 45.252 30.627C45.4657 30.4132 45.8085 30.25 46.3125 30.25Z" fill="black" stroke="#C87851" stroke-width="2"/>
<path d="M46.3125 40H51.1875C51.6915 40 52.0343 40.1632 52.248 40.377C52.4618 40.5907 52.625 40.9335 52.625 41.4375C52.625 41.9415 52.4618 42.2843 52.248 42.498C52.0343 42.7118 51.6915 42.875 51.1875 42.875H46.3125C45.8085 42.875 45.4657 42.7118 45.252 42.498C45.0382 42.2843 44.875 41.9415 44.875 41.4375C44.875 40.9335 45.0382 40.5907 45.252 40.377C45.4657 40.1632 45.8085 40 46.3125 40Z" fill="black" stroke="#C87851" stroke-width="2"/>
<path d="M46.3125 49.75H51.1875C51.6915 49.75 52.0343 49.9132 52.248 50.127C52.4618 50.3407 52.625 50.6835 52.625 51.1875C52.625 51.6915 52.4618 52.0343 52.248 52.248C52.0343 52.4618 51.6915 52.625 51.1875 52.625H46.3125C45.8085 52.625 45.4657 52.4618 45.252 52.248C45.0382 52.0343 44.875 51.6915 44.875 51.1875C44.875 50.6835 45.0382 50.3407 45.252 50.127C45.4657 49.9132 45.8085 49.75 46.3125 49.75Z" fill="black" stroke="#C87851" stroke-width="2"/>
<path d="M46.3125 59.5H51.1875C51.6915 59.5 52.0343 59.6632 52.248 59.877C52.4618 60.0907 52.625 60.4335 52.625 60.9375C52.625 61.4415 52.4618 61.7843 52.248 61.998C52.0343 62.2118 51.6915 62.375 51.1875 62.375H46.3125C45.8085 62.375 45.4657 62.2118 45.252 61.998C45.0382 61.7843 44.875 61.4415 44.875 60.9375C44.875 60.4335 45.0382 60.0907 45.252 59.877C45.4657 59.6632 45.8085 59.5 46.3125 59.5Z" fill="black" stroke="#C87851" stroke-width="2"/>
<path d="M46.3125 69.25H51.1875C51.6915 69.25 52.0343 69.4132 52.248 69.627C52.4618 69.8407 52.625 70.1835 52.625 70.6875C52.625 71.1915 52.4618 71.5343 52.248 71.748C52.0343 71.9618 51.6915 72.125 51.1875 72.125H46.3125C45.8085 72.125 45.4657 71.9618 45.252 71.748C45.0382 71.5343 44.875 71.1915 44.875 70.6875C44.875 70.1835 45.0382 69.8407 45.252 69.627C45.4657 69.4132 45.8085 69.25 46.3125 69.25Z" fill="black" stroke="#C87851" stroke-width="2"/>
<path d="M46.3125 79H51.1875C51.6915 79 52.0343 79.1632 52.248 79.377C52.4618 79.5907 52.625 79.9335 52.625 80.4375C52.625 80.9415 52.4618 81.2843 52.248 81.498C52.0343 81.7118 51.6915 81.875 51.1875 81.875H46.3125C45.8085 81.875 45.4657 81.7118 45.252 81.498C45.0382 81.2843 44.875 80.9415 44.875 80.4375C44.875 79.9335 45.0382 79.5907 45.252 79.377C45.4657 79.1632 45.8085 79 46.3125 79Z" fill="black" stroke="#C87851" stroke-width="2"/>
<path d="M12.1875 30.25H36.5625C37.0665 30.25 37.4093 30.4132 37.623 30.627C37.8368 30.8407 38 31.1835 38 31.6875C38 32.1915 37.8368 32.5343 37.623 32.748C37.4093 32.9618 37.0665 33.125 36.5625 33.125H12.1875C11.6835 33.125 11.3407 32.9618 11.127 32.748C10.9132 32.5343 10.75 32.1915 10.75 31.6875C10.75 31.1835 10.9132 30.8407 11.127 30.627C11.3407 30.4132 11.6835 30.25 12.1875 30.25Z" fill="black" stroke="#C87851" stroke-width="2"/>
<path d="M17.0625 40H31.6875C35.0352 40 38 42.9648 38 46.3125V75.5625C38 78.9102 35.0352 81.875 31.6875 81.875H17.0625C13.7148 81.875 10.75 78.9102 10.75 75.5625V46.3125C10.75 42.9648 13.7148 40 17.0625 40ZM17.0625 42.875C16.104 42.875 15.2272 43.1985 14.5879 43.8379C13.9485 44.4772 13.625 45.354 13.625 46.3125V75.5625C13.625 76.521 13.9485 77.3978 14.5879 78.0371C15.2272 78.6765 16.104 79 17.0625 79H31.6875C32.646 79 33.5228 78.6765 34.1621 78.0371C34.8015 77.3978 35.125 76.521 35.125 75.5625V46.3125C35.125 45.354 34.8015 44.4772 34.1621 43.8379C33.5228 43.1985 32.646 42.875 31.6875 42.875H17.0625Z" fill="black" stroke="#C87851" stroke-width="2"/>
<path d="M7.3125 1H69.2246C72.5723 1 75.5371 3.96478 75.5371 7.3125V15.1123C75.5371 16.4106 76.1921 17.764 77.5527 18.4443L77.5996 18.4678L77.6484 18.4863C81.3855 19.8877 84.6786 22.2262 88.0918 24.6641C88.6831 25.2319 89.3405 25.5815 90.0635 25.6719C90.7835 25.7619 91.453 25.5802 92.043 25.2939L100.318 21.8867L100.503 21.8105L100.645 21.6699C101.728 20.5864 103.22 20.4985 105.058 20.958C106.772 21.3867 107.969 22.2 108.793 23.8477L108.807 23.874L108.821 23.8994L116.134 36.5752C117.772 39.447 116.572 43.2349 113.594 44.9473L106.292 48.8428L106.16 48.9131L106.056 49.0176C105.393 49.6799 104.787 50.9047 104.787 52.1621V52.2852L104.817 52.4053C105.269 54.2124 105.275 56.5174 105.275 58.5C105.275 60.4517 105.268 62.7157 104.837 64.5098C104.52 65.2214 104.523 65.9693 104.808 66.6328C105.092 67.2963 105.628 67.8102 106.267 68.1416V68.1436L113.037 72.0117C116.075 74.2039 116.736 77.9255 114.77 80.2852L114.714 80.3506L114.671 80.4248L107.381 93.0605C106.969 93.6722 106.33 94.321 105.604 94.8789C104.87 95.4436 104.116 95.8654 103.521 96.0635C103.012 96.2333 102.225 96.2566 101.341 96.0908C100.469 95.9274 99.6263 95.6031 99.0293 95.2051L99.001 95.1865L98.9707 95.1689L92.1465 91.2695L92.1221 91.2559L92.0977 91.2432L91.9551 91.1768C91.2474 90.8677 90.5548 90.8936 89.9453 91.0459C89.3315 91.1994 88.742 91.4981 88.2773 91.7305L88.168 91.7852L88.0742 91.8662C84.7541 94.712 81.4433 96.6033 77.6484 98.0264L77.5996 98.0449L77.5527 98.0684C76.1922 98.7487 75.5371 100.102 75.5371 101.4V109.688C75.5371 113.035 72.5723 116 69.2246 116H7.3125C3.96478 116 1 113.035 1 109.688V7.3125C1 3.96479 3.96478 1 7.3125 1ZM3.875 109.688C3.875 110.646 4.19855 111.523 4.83789 112.162C5.47723 112.801 6.354 113.125 7.3125 113.125H59.5V101.375H3.875V109.688ZM62.375 27.7559L63.3164 27.8105C79.407 28.7571 92.5996 41.5229 92.5996 58.0127C92.5995 74.522 79.3867 87.7568 63.3164 88.7021L62.375 88.7568V112.638H68.25C69.2085 112.638 70.0853 112.313 70.7246 111.674C71.3637 111.035 71.6875 110.158 71.6875 109.2V100.912C71.6877 98.3948 73.3837 95.8679 75.8789 95.0361L75.8779 95.0352C79.4078 94.0189 82.8986 92.0227 85.8809 89.5518C88.1142 88.2344 91.0841 87.8936 93.0859 89.0947L93.1074 89.1084L93.1299 89.1201L100.341 92.9648C100.786 93.3382 101.328 93.485 101.723 93.5508C102.18 93.6271 102.624 93.625 102.862 93.625C103.432 93.625 103.892 93.346 104.193 93.1201C104.505 92.8864 104.802 92.5881 105.032 92.3574L105.125 92.2637L105.191 92.1494L112.447 79.5713C113.127 78.8193 113.308 77.8393 112.932 76.8975C112.57 75.9928 111.746 75.2418 110.669 74.6934L103.861 70.8027C101.766 69.5438 100.514 67.0256 100.922 64.5312C101.429 62.4635 101.425 60.4126 101.425 58.5C101.425 56.5858 101.428 54.5334 100.92 52.4639C100.515 49.9744 101.764 47.4608 103.853 46.2012L111.133 42.3203L111.177 42.2969L111.217 42.2695C112.082 41.6924 112.754 40.9107 113.021 40.0186C113.29 39.1226 113.124 38.1755 112.447 37.4277L105.191 24.8506L105.125 24.7363L105.032 24.6426L104.644 24.2627C104.502 24.1299 104.349 23.9968 104.193 23.8799C103.973 23.715 103.669 23.5229 103.299 23.4307C102.983 23.1887 102.592 23.0098 102.131 23.0098C101.588 23.0099 101.143 23.2575 100.802 23.5645L94.0791 27.4072L94.0107 27.4453L93.9502 27.4941C91.9829 29.0679 89.1008 28.7578 86.9121 27.0068L86.8779 26.9795L86.8418 26.9551C83.8787 24.9797 80.4124 22.9976 76.9316 21.5059L76.8936 21.4893L76.8535 21.4766L76.6221 21.3936C74.254 20.4867 72.6621 18.0384 72.6621 15.5996V7.3125C72.6621 6.354 72.3386 5.47723 71.6992 4.83789C71.0599 4.19869 70.183 3.875 69.2246 3.875H62.375V27.7559ZM7.3125 3.875C6.354 3.875 5.47723 4.19855 4.83789 4.83789C4.19855 5.47723 3.875 6.354 3.875 7.3125V98.5H59.5V3.875H52.625V7.3125C52.625 10.6602 49.6602 13.625 46.3125 13.625H31.6875C28.3398 13.625 25.375 10.6602 25.375 7.3125V3.875H7.3125ZM62.375 86.3838L63.4434 86.3105C78.0897 85.3005 89.7246 73.1784 89.7246 58.5C89.7246 43.8216 78.0897 31.6995 63.4434 30.6895L62.375 30.6162V86.3838ZM28.25 7.3125C28.25 8.271 28.5736 9.14777 29.2129 9.78711C29.8522 10.4264 30.729 10.75 31.6875 10.75H46.3125C47.271 10.75 48.1478 10.4264 48.7871 9.78711C49.4265 9.14777 49.75 8.271 49.75 7.3125V3.875H28.25V7.3125Z" fill="black" stroke="#C87851" stroke-width="2"/>
</g>
<defs>
<clipPath id="clip0_88_996">
<rect width="117" height="117" fill="white"/>
</clipPath>
</defs>
</svg>
