<svg width="49" height="49" viewBox="0 0 49 49" fill="none" xmlns="http://www.w3.org/2000/svg">
<path d="M8.03764 37.6827L6.57283 38.5562C6.53451 38.5783 6.29757 38.569 5.92348 38.3295C5.43346 38.0158 4.92562 37.4579 4.53113 36.7965L1.58361 31.8585C1.34327 31.4537 0.819214 31.3224 0.415364 31.5636C0.0115135 31.8049 -0.120638 32.3271 0.120496 32.7318L3.06801 37.6699C3.60143 38.5629 4.2891 39.3068 5.00484 39.7644C5.52979 40.101 6.04619 40.2697 6.5199 40.2697C6.85309 40.2697 7.16578 40.1863 7.44701 40.0184L8.91092 39.145C9.31486 38.9038 9.44692 38.3815 9.20579 37.9767C8.96555 37.5729 8.44238 37.4416 8.03764 37.6827Z" fill="#00B4D8"/>
<path d="M33.5366 39.6742C33.0654 39.6742 32.6845 40.0551 32.6845 40.5263V42.2305C32.6845 42.4427 31.7779 43.0826 30.1281 43.0826H24.3762C23.905 43.0826 23.5242 43.4635 23.5242 43.9347C23.5242 44.406 23.9051 44.7867 24.3762 44.7867H30.1281C32.5575 44.7867 34.3887 43.6875 34.3887 42.2303V40.5261C34.3887 40.0559 34.0078 39.6742 33.5366 39.6742Z" fill="#00B4D8"/>
<path d="M33.3805 24.8991L29.523 23.4028L38.5231 18.7851C39.7051 18.014 39.9709 16.4758 39.1179 15.3519L36.5973 12.3934C36.2479 11.6947 35.5331 11.2097 34.698 11.2097H14.2471C13.0703 11.2097 12.1168 12.1633 12.1168 13.34C12.1168 14.5168 13.0704 15.4703 14.2471 15.4703H28.4767L18.9771 20.1042C18.9626 20.1111 18.9473 20.1196 18.9319 20.1255L18.8646 20.1588L18.8689 20.1613C18.8578 20.1664 18.8485 20.1742 18.8382 20.1792C18.7701 20.2142 18.7036 20.2508 18.6388 20.2917C18.5665 20.3378 18.4974 20.3863 18.4292 20.44C18.3661 20.4895 18.3065 20.5388 18.2477 20.5942C18.1855 20.653 18.1267 20.716 18.0705 20.7808C18.0176 20.8421 17.9665 20.9052 17.9179 20.9733C17.8677 21.0441 17.8234 21.1191 17.7799 21.1957C17.7552 21.2392 17.7245 21.2759 17.7015 21.3201L15.3146 26.1645L5.87146 30.4729C4.58649 31.0592 4.02063 32.5759 4.60698 33.8602C5.03641 34.8009 5.96441 35.3564 6.93411 35.3564C7.28859 35.3564 7.64985 35.2814 7.99328 35.1255L18.2656 30.4388C18.8024 30.1942 19.237 29.7717 19.4978 29.2433L21.2532 25.6814L29.3202 28.8104L26.5082 38.0806C26.0992 39.4321 26.8619 40.8593 28.2124 41.2691C28.4603 41.3441 28.71 41.38 28.9554 41.38C30.0522 41.38 31.0662 40.6685 31.4011 39.5649L34.9007 28.0264C35.2901 26.7449 34.6272 25.3831 33.3805 24.8991Z" fill="#00B4D8"/>
<path d="M37.585 9.22698C37.585 11.4954 39.4298 13.341 41.6999 13.341C43.9691 13.341 45.808 11.4954 45.808 9.22698C45.808 6.95697 43.9691 5.11719 41.6999 5.11719C39.4298 5.11719 37.585 6.95697 37.585 9.22698Z" fill="#00B4D8"/>
<path d="M32.1578 5.06521C32.1578 4.59399 31.777 4.21313 31.3058 4.21313H18.3108C17.8396 4.21313 17.4587 4.59399 17.4587 5.06521C17.4587 5.53643 17.8396 5.91729 18.3108 5.91729H31.3057C31.7761 5.91729 32.1578 5.53643 32.1578 5.06521Z" fill="#00B4D8"/>
<path d="M12.9851 7.2041C12.5139 7.2041 12.1331 7.58496 12.1331 8.05618C12.1331 8.5274 12.5139 8.90826 12.9851 8.90826H25.98C26.4512 8.90826 26.8321 8.5274 26.8321 8.05618C26.8321 7.58496 26.4512 7.2041 25.98 7.2041H12.9851Z" fill="#00B4D8"/>
<path d="M48.1479 20.6079H39.9905C39.5193 20.6079 39.1384 20.9888 39.1384 21.46C39.1384 21.9312 39.5193 22.3121 39.9905 22.3121H48.1479C48.6191 22.3121 49 21.9312 49 21.46C49.0001 20.9896 48.6192 20.6079 48.1479 20.6079Z" fill="#00B4D8"/>
<path d="M44.8051 23.5989H36.6477C36.1765 23.5989 35.7957 23.9797 35.7957 24.451C35.7957 24.9223 36.1765 25.303 36.6477 25.303H44.8051C45.2763 25.303 45.6572 24.9223 45.6572 24.451C45.6572 23.9797 45.2763 23.5989 44.8051 23.5989Z" fill="#00B4D8"/>
</svg>
